<mxfile host="65bd71144e">
    <diagram id="uv3i8LZZuUd8cfUYcvEh" name="Page-1">
        <mxGraphModel dx="269" dy="218" grid="1" gridSize="10" guides="1" tooltips="1" connect="1" arrows="1" fold="1" page="1" pageScale="1" pageWidth="1169" pageHeight="827" math="0" shadow="0">
            <root>
                <mxCell id="0"/>
                <mxCell id="1" parent="0"/>
                <mxCell id="11" value="&lt;font style=&quot;font-size: 8px;&quot;&gt;id&lt;/font&gt;" style="edgeStyle=none;html=1;exitX=0.25;exitY=0;exitDx=0;exitDy=0;endArrow=oval;endFill=1;" edge="1" parent="1">
                    <mxGeometry x="1" y="10" relative="1" as="geometry">
                        <mxPoint x="88.22222222222223" y="420.0000000000001" as="targetPoint"/>
                        <mxPoint x="88" y="470" as="sourcePoint"/>
                        <mxPoint x="10" y="-10" as="offset"/>
                    </mxGeometry>
                </mxCell>
                <mxCell id="19" style="edgeStyle=none;html=1;exitX=1;exitY=0.5;exitDx=0;exitDy=0;entryX=0;entryY=0.5;entryDx=0;entryDy=0;fontSize=8;endArrow=none;endFill=0;" edge="1" parent="1" source="2" target="18">
                    <mxGeometry relative="1" as="geometry"/>
                </mxCell>
                <mxCell id="70" style="edgeStyle=none;rounded=0;html=1;exitX=0.5;exitY=1;exitDx=0;exitDy=0;fontSize=8;endArrow=none;endFill=0;entryX=0.5;entryY=1;entryDx=0;entryDy=0;" edge="1" parent="1" source="2" target="69">
                    <mxGeometry relative="1" as="geometry">
                        <mxPoint x="1180" y="479.9999999999999" as="targetPoint"/>
                        <Array as="points">
                            <mxPoint x="130" y="600"/>
                            <mxPoint x="1115" y="600"/>
                        </Array>
                    </mxGeometry>
                </mxCell>
                <mxCell id="2" value="User" style="rounded=1;arcSize=10;whiteSpace=wrap;html=1;align=center;" vertex="1" parent="1">
                    <mxGeometry x="80" y="470" width="100" height="40" as="geometry"/>
                </mxCell>
                <mxCell id="32" style="edgeStyle=none;rounded=0;html=1;exitX=1;exitY=0.5;exitDx=0;exitDy=0;entryX=0;entryY=0.5;entryDx=0;entryDy=0;fontSize=8;endArrow=none;endFill=0;" edge="1" parent="1" source="3" target="31">
                    <mxGeometry relative="1" as="geometry"/>
                </mxCell>
                <mxCell id="3" value="Order" style="rounded=1;arcSize=10;whiteSpace=wrap;html=1;align=center;" vertex="1" parent="1">
                    <mxGeometry x="360" y="470" width="100" height="40" as="geometry"/>
                </mxCell>
                <mxCell id="40" style="edgeStyle=none;rounded=0;html=1;exitX=0.5;exitY=0;exitDx=0;exitDy=0;entryX=0.5;entryY=1;entryDx=0;entryDy=0;fontSize=8;endArrow=none;endFill=0;" edge="1" parent="1" source="4" target="39">
                    <mxGeometry relative="1" as="geometry"/>
                </mxCell>
                <mxCell id="4" value="OrderDetail" style="rounded=1;arcSize=10;whiteSpace=wrap;html=1;align=center;" vertex="1" parent="1">
                    <mxGeometry x="640" y="470" width="100" height="40" as="geometry"/>
                </mxCell>
                <mxCell id="52" style="edgeStyle=none;rounded=0;html=1;exitX=1;exitY=0.5;exitDx=0;exitDy=0;entryX=0;entryY=0.5;entryDx=0;entryDy=0;fontSize=8;endArrow=none;endFill=0;" edge="1" parent="1" source="5" target="50">
                    <mxGeometry relative="1" as="geometry">
                        <Array as="points">
                            <mxPoint x="780" y="290"/>
                            <mxPoint x="780" y="220"/>
                        </Array>
                    </mxGeometry>
                </mxCell>
                <mxCell id="58" style="edgeStyle=none;rounded=0;html=1;exitX=1;exitY=0.5;exitDx=0;exitDy=0;entryX=0;entryY=0.5;entryDx=0;entryDy=0;fontSize=8;endArrow=none;endFill=0;" edge="1" parent="1" source="5" target="51">
                    <mxGeometry relative="1" as="geometry">
                        <Array as="points">
                            <mxPoint x="780" y="290"/>
                            <mxPoint x="780" y="360"/>
                        </Array>
                    </mxGeometry>
                </mxCell>
                <mxCell id="63" style="edgeStyle=none;rounded=0;html=1;exitX=1;exitY=0.5;exitDx=0;exitDy=0;entryX=0;entryY=0.5;entryDx=0;entryDy=0;fontSize=8;endArrow=none;endFill=0;" edge="1" parent="1" source="5" target="62">
                    <mxGeometry relative="1" as="geometry"/>
                </mxCell>
                <mxCell id="5" value="Product" style="rounded=1;arcSize=10;whiteSpace=wrap;html=1;align=center;" vertex="1" parent="1">
                    <mxGeometry x="640" y="270" width="100" height="40" as="geometry"/>
                </mxCell>
                <mxCell id="80" style="edgeStyle=none;rounded=0;html=1;exitX=1;exitY=0.5;exitDx=0;exitDy=0;entryX=0;entryY=0.5;entryDx=0;entryDy=0;labelBackgroundColor=none;fontSize=8;fontColor=#cc0000;endArrow=none;endFill=0;" edge="1" parent="1" source="6" target="76">
                    <mxGeometry relative="1" as="geometry"/>
                </mxCell>
                <mxCell id="89" style="edgeStyle=none;rounded=0;html=1;exitX=0;exitY=0.5;exitDx=0;exitDy=0;entryX=1;entryY=0.5;entryDx=0;entryDy=0;labelBackgroundColor=none;fontSize=8;fontColor=#cc0000;endArrow=none;endFill=0;" edge="1" parent="1" source="6" target="88">
                    <mxGeometry relative="1" as="geometry"/>
                </mxCell>
                <mxCell id="6" value="CategoryProduct" style="rounded=1;arcSize=10;whiteSpace=wrap;html=1;align=center;" vertex="1" parent="1">
                    <mxGeometry x="360" y="270" width="100" height="40" as="geometry"/>
                </mxCell>
                <mxCell id="7" value="newslatter" style="rounded=1;arcSize=10;whiteSpace=wrap;html=1;align=center;" vertex="1" parent="1">
                    <mxGeometry x="80" y="710" width="100" height="40" as="geometry"/>
                </mxCell>
                <mxCell id="8" value="comment" style="rounded=1;arcSize=10;whiteSpace=wrap;html=1;align=center;" vertex="1" parent="1">
                    <mxGeometry x="950" y="270" width="100" height="40" as="geometry"/>
                </mxCell>
                <mxCell id="9" value="Price" style="rounded=1;arcSize=10;whiteSpace=wrap;html=1;align=center;" vertex="1" parent="1">
                    <mxGeometry x="950" y="200" width="100" height="40" as="geometry"/>
                </mxCell>
                <mxCell id="10" value="ProductImage" style="rounded=1;arcSize=10;whiteSpace=wrap;html=1;align=center;" vertex="1" parent="1">
                    <mxGeometry x="950" y="340" width="100" height="40" as="geometry"/>
                </mxCell>
                <mxCell id="12" value="&lt;font style=&quot;font-size: 8px;&quot;&gt;username&lt;/font&gt;" style="edgeStyle=none;html=1;exitX=0.25;exitY=0;exitDx=0;exitDy=0;endArrow=oval;endFill=0;" edge="1" parent="1">
                    <mxGeometry x="1" y="10" relative="1" as="geometry">
                        <mxPoint x="113" y="440" as="targetPoint"/>
                        <mxPoint x="113" y="470" as="sourcePoint"/>
                        <mxPoint x="10" y="-10" as="offset"/>
                    </mxGeometry>
                </mxCell>
                <mxCell id="13" value="&lt;font style=&quot;font-size: 8px;&quot;&gt;password&lt;/font&gt;" style="edgeStyle=none;html=1;exitX=0.25;exitY=0;exitDx=0;exitDy=0;endArrow=oval;endFill=0;" edge="1" parent="1">
                    <mxGeometry x="1" y="10" relative="1" as="geometry">
                        <mxPoint x="133" y="420" as="targetPoint"/>
                        <mxPoint x="133" y="470" as="sourcePoint"/>
                        <mxPoint x="10" y="-10" as="offset"/>
                    </mxGeometry>
                </mxCell>
                <mxCell id="14" value="&lt;font style=&quot;font-size: 8px;&quot;&gt;email&lt;/font&gt;" style="edgeStyle=none;html=1;exitX=0.25;exitY=0;exitDx=0;exitDy=0;endArrow=oval;endFill=0;" edge="1" parent="1">
                    <mxGeometry x="1" y="10" relative="1" as="geometry">
                        <mxPoint x="150" y="440" as="targetPoint"/>
                        <mxPoint x="150" y="470" as="sourcePoint"/>
                        <mxPoint x="10" y="-10" as="offset"/>
                    </mxGeometry>
                </mxCell>
                <mxCell id="15" value="&lt;font style=&quot;font-size: 8px;&quot;&gt;role&lt;/font&gt;" style="edgeStyle=none;html=1;exitX=0.25;exitY=0;exitDx=0;exitDy=0;endArrow=oval;endFill=0;" edge="1" parent="1">
                    <mxGeometry x="1" y="10" relative="1" as="geometry">
                        <mxPoint x="170" y="420" as="targetPoint"/>
                        <mxPoint x="170" y="470" as="sourcePoint"/>
                        <mxPoint x="10" y="-10" as="offset"/>
                    </mxGeometry>
                </mxCell>
                <mxCell id="16" value="&lt;font style=&quot;font-size: 8px;&quot;&gt;created_at&lt;/font&gt;" style="edgeStyle=none;html=1;exitX=0.25;exitY=0;exitDx=0;exitDy=0;endArrow=oval;endFill=0;" edge="1" parent="1">
                    <mxGeometry x="1" y="10" relative="1" as="geometry">
                        <mxPoint x="100" y="540" as="targetPoint"/>
                        <mxPoint x="100" y="510" as="sourcePoint"/>
                        <mxPoint x="-10" y="10" as="offset"/>
                    </mxGeometry>
                </mxCell>
                <mxCell id="17" value="&lt;font style=&quot;font-size: 8px;&quot;&gt;updated_at&lt;/font&gt;" style="edgeStyle=none;html=1;exitX=0.25;exitY=0;exitDx=0;exitDy=0;endArrow=oval;endFill=0;" edge="1" parent="1">
                    <mxGeometry x="1" y="10" relative="1" as="geometry">
                        <mxPoint x="159.99999999999997" y="540" as="targetPoint"/>
                        <mxPoint x="159.99999999999997" y="510" as="sourcePoint"/>
                        <mxPoint x="-10" y="10" as="offset"/>
                    </mxGeometry>
                </mxCell>
                <mxCell id="20" style="edgeStyle=none;html=1;exitX=1;exitY=0.5;exitDx=0;exitDy=0;entryX=0;entryY=0.5;entryDx=0;entryDy=0;fontSize=8;endArrow=none;endFill=0;" edge="1" parent="1" source="18" target="3">
                    <mxGeometry relative="1" as="geometry"/>
                </mxCell>
                <mxCell id="18" value="make" style="shape=rhombus;perimeter=rhombusPerimeter;whiteSpace=wrap;html=1;align=center;fontSize=8;" vertex="1" parent="1">
                    <mxGeometry x="240" y="470" width="70" height="40" as="geometry"/>
                </mxCell>
                <mxCell id="21" value="(0,N)" style="text;html=1;align=center;verticalAlign=middle;resizable=0;points=[];autosize=1;strokeColor=none;fillColor=none;fontSize=8;" vertex="1" parent="1">
                    <mxGeometry x="175" y="473" width="40" height="20" as="geometry"/>
                </mxCell>
                <mxCell id="22" value="(1,1)" style="text;html=1;align=center;verticalAlign=middle;resizable=0;points=[];autosize=1;strokeColor=none;fillColor=none;fontSize=8;" vertex="1" parent="1">
                    <mxGeometry x="320" y="473" width="40" height="20" as="geometry"/>
                </mxCell>
                <mxCell id="23" value="&lt;font style=&quot;font-size: 8px;&quot;&gt;id&lt;/font&gt;" style="edgeStyle=none;html=1;exitX=0.25;exitY=0;exitDx=0;exitDy=0;endArrow=oval;endFill=1;" edge="1" parent="1">
                    <mxGeometry x="1" y="10" relative="1" as="geometry">
                        <mxPoint x="380" y="430" as="targetPoint"/>
                        <mxPoint x="380" y="470.0000000000001" as="sourcePoint"/>
                        <mxPoint x="10" y="-10" as="offset"/>
                    </mxGeometry>
                </mxCell>
                <mxCell id="28" value="&lt;span style=&quot;font-size: 8px;&quot;&gt;amount&lt;/span&gt;" style="edgeStyle=none;html=1;exitX=0.25;exitY=0;exitDx=0;exitDy=0;endArrow=oval;endFill=0;" edge="1" parent="1">
                    <mxGeometry x="1" y="10" relative="1" as="geometry">
                        <mxPoint x="409.74" y="430" as="targetPoint"/>
                        <mxPoint x="409.74" y="470.0000000000001" as="sourcePoint"/>
                        <mxPoint x="10" y="-10" as="offset"/>
                    </mxGeometry>
                </mxCell>
                <mxCell id="29" value="&lt;span style=&quot;font-size: 8px;&quot;&gt;created_time&lt;/span&gt;" style="edgeStyle=none;html=1;exitX=0.25;exitY=0;exitDx=0;exitDy=0;endArrow=oval;endFill=0;" edge="1" parent="1">
                    <mxGeometry x="1" y="10" relative="1" as="geometry">
                        <mxPoint x="450" y="430" as="targetPoint"/>
                        <mxPoint x="450" y="470.0000000000001" as="sourcePoint"/>
                        <mxPoint x="10" y="-10" as="offset"/>
                    </mxGeometry>
                </mxCell>
                <mxCell id="30" value="&lt;span style=&quot;font-size: 8px;&quot;&gt;status&lt;/span&gt;" style="edgeStyle=none;html=1;exitX=0.25;exitY=1;exitDx=0;exitDy=0;endArrow=oval;endFill=0;" edge="1" parent="1" source="3">
                    <mxGeometry x="1" y="10" relative="1" as="geometry">
                        <mxPoint x="385" y="540" as="targetPoint"/>
                        <mxPoint x="460" y="480.0000000000001" as="sourcePoint"/>
                        <mxPoint x="-10" y="10" as="offset"/>
                    </mxGeometry>
                </mxCell>
                <mxCell id="33" style="edgeStyle=none;rounded=0;html=1;exitX=1;exitY=0.5;exitDx=0;exitDy=0;entryX=0;entryY=0.5;entryDx=0;entryDy=0;fontSize=8;endArrow=none;endFill=0;" edge="1" parent="1" source="31" target="4">
                    <mxGeometry relative="1" as="geometry"/>
                </mxCell>
                <mxCell id="31" value="contain" style="shape=rhombus;perimeter=rhombusPerimeter;whiteSpace=wrap;html=1;align=center;fontSize=8;" vertex="1" parent="1">
                    <mxGeometry x="514.5" y="470" width="70" height="40" as="geometry"/>
                </mxCell>
                <mxCell id="34" value="(0,N)" style="text;html=1;align=center;verticalAlign=middle;resizable=0;points=[];autosize=1;strokeColor=none;fillColor=none;fontSize=8;" vertex="1" parent="1">
                    <mxGeometry x="474.5" y="470" width="40" height="20" as="geometry"/>
                </mxCell>
                <mxCell id="35" value="(1,1)" style="text;html=1;align=center;verticalAlign=middle;resizable=0;points=[];autosize=1;strokeColor=none;fillColor=none;fontSize=8;" vertex="1" parent="1">
                    <mxGeometry x="600" y="470" width="40" height="20" as="geometry"/>
                </mxCell>
                <mxCell id="37" value="&lt;span style=&quot;font-size: 8px;&quot;&gt;quantity&lt;br&gt;&lt;/span&gt;" style="edgeStyle=none;html=1;exitX=0.25;exitY=1;exitDx=0;exitDy=0;endArrow=oval;endFill=0;" edge="1" parent="1" source="4">
                    <mxGeometry x="1" y="10" relative="1" as="geometry">
                        <mxPoint x="665" y="550" as="targetPoint"/>
                        <mxPoint x="650" y="580.0000000000002" as="sourcePoint"/>
                        <mxPoint x="-10" y="10" as="offset"/>
                    </mxGeometry>
                </mxCell>
                <mxCell id="41" style="edgeStyle=none;rounded=0;html=1;exitX=0.5;exitY=0;exitDx=0;exitDy=0;entryX=0.5;entryY=1;entryDx=0;entryDy=0;fontSize=8;endArrow=none;endFill=0;" edge="1" parent="1" source="39" target="5">
                    <mxGeometry relative="1" as="geometry"/>
                </mxCell>
                <mxCell id="39" value="include" style="shape=rhombus;perimeter=rhombusPerimeter;whiteSpace=wrap;html=1;align=center;fontSize=8;" vertex="1" parent="1">
                    <mxGeometry x="655" y="373.5" width="70" height="40" as="geometry"/>
                </mxCell>
                <mxCell id="42" value="(1,1)" style="text;html=1;align=center;verticalAlign=middle;resizable=0;points=[];autosize=1;strokeColor=none;fillColor=none;fontSize=8;" vertex="1" parent="1">
                    <mxGeometry x="685" y="440" width="40" height="20" as="geometry"/>
                </mxCell>
                <mxCell id="43" value="(0,N)" style="text;html=1;align=center;verticalAlign=middle;resizable=0;points=[];autosize=1;strokeColor=none;fillColor=none;fontSize=8;" vertex="1" parent="1">
                    <mxGeometry x="685" y="320" width="40" height="20" as="geometry"/>
                </mxCell>
                <mxCell id="44" value="&lt;font style=&quot;font-size: 8px;&quot;&gt;id&lt;/font&gt;" style="edgeStyle=none;html=1;exitX=0.25;exitY=0;exitDx=0;exitDy=0;endArrow=oval;endFill=1;" edge="1" parent="1">
                    <mxGeometry x="1" y="10" relative="1" as="geometry">
                        <mxPoint x="655" y="230" as="targetPoint"/>
                        <mxPoint x="655" y="270.0000000000001" as="sourcePoint"/>
                        <mxPoint x="10" y="-10" as="offset"/>
                    </mxGeometry>
                </mxCell>
                <mxCell id="45" value="&lt;font style=&quot;font-size: 8px;&quot;&gt;brand&lt;br&gt;&lt;/font&gt;" style="edgeStyle=none;html=1;exitX=0.25;exitY=0;exitDx=0;exitDy=0;endArrow=oval;endFill=0;fontColor=#CC0000;" edge="1" parent="1">
                    <mxGeometry x="1" y="10" relative="1" as="geometry">
                        <mxPoint x="670" y="250" as="targetPoint"/>
                        <mxPoint x="670" y="270.0000000000001" as="sourcePoint"/>
                        <mxPoint x="10" y="-10" as="offset"/>
                    </mxGeometry>
                </mxCell>
                <mxCell id="46" value="&lt;font style=&quot;font-size: 8px;&quot;&gt;name&lt;br&gt;&lt;/font&gt;" style="edgeStyle=none;html=1;exitX=0.25;exitY=0;exitDx=0;exitDy=0;endArrow=oval;endFill=0;fontStyle=1;fontColor=#CC0000;" edge="1" parent="1">
                    <mxGeometry x="1" y="10" relative="1" as="geometry">
                        <mxPoint x="685" y="230" as="targetPoint"/>
                        <mxPoint x="685" y="270.0000000000001" as="sourcePoint"/>
                        <mxPoint x="10" y="-10" as="offset"/>
                    </mxGeometry>
                </mxCell>
                <mxCell id="47" value="&lt;font style=&quot;font-size: 8px;&quot;&gt;color&lt;br&gt;&lt;/font&gt;" style="edgeStyle=none;html=1;exitX=0.25;exitY=0;exitDx=0;exitDy=0;endArrow=oval;endFill=0;fontColor=#CC0000;" edge="1" parent="1">
                    <mxGeometry x="1" y="10" relative="1" as="geometry">
                        <mxPoint x="700" y="250" as="targetPoint"/>
                        <mxPoint x="700" y="270.0000000000001" as="sourcePoint"/>
                        <mxPoint x="10" y="-10" as="offset"/>
                    </mxGeometry>
                </mxCell>
                <mxCell id="48" value="&lt;font style=&quot;font-size: 8px;&quot;&gt;size&lt;br&gt;&lt;/font&gt;" style="edgeStyle=none;html=1;exitX=0.25;exitY=0;exitDx=0;exitDy=0;endArrow=oval;endFill=0;" edge="1" parent="1">
                    <mxGeometry x="1" y="10" relative="1" as="geometry">
                        <mxPoint x="710" y="230" as="targetPoint"/>
                        <mxPoint x="710" y="270.0000000000001" as="sourcePoint"/>
                        <mxPoint x="10" y="-10" as="offset"/>
                    </mxGeometry>
                </mxCell>
                <mxCell id="49" value="&lt;font style=&quot;font-size: 8px;&quot;&gt;desc.&lt;br&gt;&lt;/font&gt;" style="edgeStyle=none;html=1;exitX=0.25;exitY=0;exitDx=0;exitDy=0;endArrow=oval;endFill=0;fontColor=#cc0000;" edge="1" parent="1">
                    <mxGeometry x="1" y="10" relative="1" as="geometry">
                        <mxPoint x="730" y="250" as="targetPoint"/>
                        <mxPoint x="730" y="270.0000000000001" as="sourcePoint"/>
                        <mxPoint x="10" y="-10" as="offset"/>
                    </mxGeometry>
                </mxCell>
                <mxCell id="53" style="edgeStyle=none;rounded=0;html=1;exitX=1;exitY=0.5;exitDx=0;exitDy=0;entryX=0;entryY=0.5;entryDx=0;entryDy=0;fontSize=8;endArrow=none;endFill=0;" edge="1" parent="1" source="50" target="9">
                    <mxGeometry relative="1" as="geometry"/>
                </mxCell>
                <mxCell id="50" value="labled" style="shape=rhombus;perimeter=rhombusPerimeter;whiteSpace=wrap;html=1;align=center;fontSize=8;" vertex="1" parent="1">
                    <mxGeometry x="830" y="200" width="70" height="40" as="geometry"/>
                </mxCell>
                <mxCell id="60" style="edgeStyle=none;rounded=0;html=1;exitX=1;exitY=0.5;exitDx=0;exitDy=0;entryX=0;entryY=0.5;entryDx=0;entryDy=0;fontSize=8;endArrow=none;endFill=0;" edge="1" parent="1" source="51" target="10">
                    <mxGeometry relative="1" as="geometry"/>
                </mxCell>
                <mxCell id="51" value="img" style="shape=rhombus;perimeter=rhombusPerimeter;whiteSpace=wrap;html=1;align=center;fontSize=8;" vertex="1" parent="1">
                    <mxGeometry x="830" y="340" width="70" height="40" as="geometry"/>
                </mxCell>
                <mxCell id="54" value="(1,N)" style="text;html=1;align=center;verticalAlign=middle;resizable=0;points=[];autosize=1;strokeColor=none;fillColor=none;fontSize=8;" vertex="1" parent="1">
                    <mxGeometry x="790" y="200" width="40" height="20" as="geometry"/>
                </mxCell>
                <mxCell id="55" value="(1,1)" style="text;html=1;align=center;verticalAlign=middle;resizable=0;points=[];autosize=1;strokeColor=none;fillColor=none;fontSize=8;" vertex="1" parent="1">
                    <mxGeometry x="910" y="200" width="40" height="20" as="geometry"/>
                </mxCell>
                <mxCell id="57" value="&lt;font style=&quot;font-size: 8px;&quot;&gt;start_time&lt;br&gt;&lt;/font&gt;" style="edgeStyle=none;html=1;exitX=0.25;exitY=0;exitDx=0;exitDy=0;endArrow=oval;endFill=0;" edge="1" parent="1">
                    <mxGeometry x="1" y="10" relative="1" as="geometry">
                        <mxPoint x="1020" y="180" as="targetPoint"/>
                        <mxPoint x="1020" y="200.0000000000001" as="sourcePoint"/>
                        <mxPoint x="10" y="-10" as="offset"/>
                    </mxGeometry>
                </mxCell>
                <mxCell id="59" value="(0,N)" style="text;html=1;align=center;verticalAlign=middle;resizable=0;points=[];autosize=1;strokeColor=none;fillColor=none;fontSize=8;" vertex="1" parent="1">
                    <mxGeometry x="790" y="340" width="40" height="20" as="geometry"/>
                </mxCell>
                <mxCell id="61" value="(1,1)" style="text;html=1;align=center;verticalAlign=middle;resizable=0;points=[];autosize=1;strokeColor=none;fillColor=none;fontSize=8;" vertex="1" parent="1">
                    <mxGeometry x="910" y="340" width="40" height="20" as="geometry"/>
                </mxCell>
                <mxCell id="64" style="edgeStyle=none;rounded=0;html=1;exitX=1;exitY=0.5;exitDx=0;exitDy=0;entryX=0;entryY=0.5;entryDx=0;entryDy=0;fontSize=8;endArrow=none;endFill=0;" edge="1" parent="1" source="62" target="8">
                    <mxGeometry relative="1" as="geometry"/>
                </mxCell>
                <mxCell id="62" value="has" style="shape=rhombus;perimeter=rhombusPerimeter;whiteSpace=wrap;html=1;align=center;fontSize=8;" vertex="1" parent="1">
                    <mxGeometry x="830" y="270" width="70" height="40" as="geometry"/>
                </mxCell>
                <mxCell id="66" value="(0,N)" style="text;html=1;align=center;verticalAlign=middle;resizable=0;points=[];autosize=1;strokeColor=none;fillColor=none;fontSize=8;" vertex="1" parent="1">
                    <mxGeometry x="790" y="270" width="40" height="20" as="geometry"/>
                </mxCell>
                <mxCell id="67" value="(1,1)" style="text;html=1;align=center;verticalAlign=middle;resizable=0;points=[];autosize=1;strokeColor=none;fillColor=none;fontSize=8;" vertex="1" parent="1">
                    <mxGeometry x="910" y="270" width="40" height="20" as="geometry"/>
                </mxCell>
                <mxCell id="71" style="edgeStyle=none;rounded=0;html=1;exitX=0;exitY=0.5;exitDx=0;exitDy=0;entryX=1;entryY=0.5;entryDx=0;entryDy=0;fontSize=8;endArrow=none;endFill=0;" edge="1" parent="1" source="69" target="8">
                    <mxGeometry relative="1" as="geometry"/>
                </mxCell>
                <mxCell id="69" value="feedbak" style="shape=rhombus;perimeter=rhombusPerimeter;whiteSpace=wrap;html=1;align=center;fontSize=8;" vertex="1" parent="1">
                    <mxGeometry x="1080" y="270" width="70" height="40" as="geometry"/>
                </mxCell>
                <mxCell id="72" value="(1,1)" style="text;html=1;align=center;verticalAlign=middle;resizable=0;points=[];autosize=1;strokeColor=none;fillColor=none;fontSize=8;" vertex="1" parent="1">
                    <mxGeometry x="1050" y="270" width="40" height="20" as="geometry"/>
                </mxCell>
                <mxCell id="73" value="(0,N)" style="text;html=1;align=center;verticalAlign=middle;resizable=0;points=[];autosize=1;strokeColor=none;fillColor=none;fontSize=8;" vertex="1" parent="1">
                    <mxGeometry x="1110" y="320" width="40" height="20" as="geometry"/>
                </mxCell>
                <mxCell id="74" value="&lt;font style=&quot;font-size: 8px;&quot;&gt;email&lt;/font&gt;" style="edgeStyle=none;html=1;exitX=0.25;exitY=0;exitDx=0;exitDy=0;endArrow=oval;endFill=0;" edge="1" parent="1">
                    <mxGeometry x="1" y="10" relative="1" as="geometry">
                        <mxPoint x="110" y="680" as="targetPoint"/>
                        <mxPoint x="110" y="710" as="sourcePoint"/>
                        <mxPoint x="10" y="-10" as="offset"/>
                    </mxGeometry>
                </mxCell>
                <mxCell id="75" value="&lt;font style=&quot;font-size: 8px;&quot;&gt;join_at&lt;/font&gt;" style="edgeStyle=none;html=1;exitX=0.75;exitY=0;exitDx=0;exitDy=0;endArrow=oval;endFill=0;" edge="1" parent="1" source="7">
                    <mxGeometry x="1" y="10" relative="1" as="geometry">
                        <mxPoint x="155" y="680" as="targetPoint"/>
                        <mxPoint x="110" y="519.9999999999999" as="sourcePoint"/>
                        <mxPoint x="10" y="-10" as="offset"/>
                    </mxGeometry>
                </mxCell>
                <mxCell id="81" style="edgeStyle=none;rounded=0;html=1;exitX=1;exitY=0.5;exitDx=0;exitDy=0;entryX=0;entryY=0.5;entryDx=0;entryDy=0;labelBackgroundColor=none;fontSize=8;fontColor=#cc0000;endArrow=none;endFill=0;" edge="1" parent="1" source="76" target="5">
                    <mxGeometry relative="1" as="geometry"/>
                </mxCell>
                <mxCell id="76" value="contain" style="shape=rhombus;perimeter=rhombusPerimeter;whiteSpace=wrap;html=1;align=center;fontSize=8;" vertex="1" parent="1">
                    <mxGeometry x="514.5" y="270" width="70" height="40" as="geometry"/>
                </mxCell>
                <mxCell id="82" value="(1,1)" style="text;html=1;align=center;verticalAlign=middle;resizable=0;points=[];autosize=1;strokeColor=none;fillColor=none;fontSize=8;" vertex="1" parent="1">
                    <mxGeometry x="460" y="270" width="40" height="20" as="geometry"/>
                </mxCell>
                <mxCell id="84" value="(0,N)" style="text;html=1;align=center;verticalAlign=middle;resizable=0;points=[];autosize=1;strokeColor=none;fillColor=none;fontSize=8;" vertex="1" parent="1">
                    <mxGeometry x="600" y="270" width="40" height="20" as="geometry"/>
                </mxCell>
                <mxCell id="90" style="edgeStyle=none;rounded=0;html=1;exitX=1;exitY=0.5;exitDx=0;exitDy=0;entryX=0;entryY=0.5;entryDx=0;entryDy=0;labelBackgroundColor=none;fontSize=8;fontColor=#cc0000;endArrow=none;endFill=0;" edge="1" parent="1" source="85" target="88">
                    <mxGeometry relative="1" as="geometry"/>
                </mxCell>
                <mxCell id="85" value="Category" style="rounded=1;arcSize=10;whiteSpace=wrap;html=1;align=center;" vertex="1" parent="1">
                    <mxGeometry x="80" y="270" width="100" height="40" as="geometry"/>
                </mxCell>
                <mxCell id="86" value="&lt;font style=&quot;font-size: 8px;&quot;&gt;id&lt;/font&gt;" style="edgeStyle=none;html=1;exitX=0.25;exitY=0;exitDx=0;exitDy=0;endArrow=oval;endFill=1;" edge="1" parent="1">
                    <mxGeometry x="1" y="10" relative="1" as="geometry">
                        <mxPoint x="100" y="230" as="targetPoint"/>
                        <mxPoint x="100" y="270.0000000000001" as="sourcePoint"/>
                        <mxPoint x="10" y="-10" as="offset"/>
                    </mxGeometry>
                </mxCell>
                <mxCell id="87" value="&lt;font style=&quot;font-size: 8px;&quot;&gt;name&lt;br&gt;&lt;/font&gt;" style="edgeStyle=none;html=1;exitX=0.25;exitY=0;exitDx=0;exitDy=0;endArrow=oval;endFill=0;labelBackgroundColor=none;fontColor=#CC0000;" edge="1" parent="1">
                    <mxGeometry x="1" y="10" relative="1" as="geometry">
                        <mxPoint x="120" y="230" as="targetPoint"/>
                        <mxPoint x="120" y="270.0000000000001" as="sourcePoint"/>
                        <mxPoint x="10" y="-10" as="offset"/>
                    </mxGeometry>
                </mxCell>
                <mxCell id="88" value="contain" style="shape=rhombus;perimeter=rhombusPerimeter;whiteSpace=wrap;html=1;align=center;fontSize=8;" vertex="1" parent="1">
                    <mxGeometry x="230" y="270" width="70" height="40" as="geometry"/>
                </mxCell>
                <mxCell id="91" value="(0,N)" style="text;html=1;align=center;verticalAlign=middle;resizable=0;points=[];autosize=1;strokeColor=none;fillColor=none;fontSize=8;" vertex="1" parent="1">
                    <mxGeometry x="180" y="270" width="40" height="20" as="geometry"/>
                </mxCell>
                <mxCell id="92" value="(1,1)" style="text;html=1;align=center;verticalAlign=middle;resizable=0;points=[];autosize=1;strokeColor=none;fillColor=none;fontSize=8;" vertex="1" parent="1">
                    <mxGeometry x="320" y="270" width="40" height="20" as="geometry"/>
                </mxCell>
                <mxCell id="94" value="&lt;font color=&quot;#ffffff&quot;&gt;id&lt;/font&gt;" style="edgeStyle=none;rounded=0;html=1;exitX=0.25;exitY=0;exitDx=0;exitDy=0;labelBackgroundColor=none;fontSize=8;fontColor=#cc0000;endArrow=oval;endFill=1;" edge="1" parent="1">
                    <mxGeometry x="1" y="10" relative="1" as="geometry">
                        <mxPoint x="287" y="680" as="targetPoint"/>
                        <mxPoint x="287" y="710" as="sourcePoint"/>
                        <mxPoint x="10" y="-10" as="offset"/>
                    </mxGeometry>
                </mxCell>
                <mxCell id="93" value="feedback" style="rounded=1;arcSize=10;whiteSpace=wrap;html=1;align=center;" vertex="1" parent="1">
                    <mxGeometry x="280" y="710" width="100" height="40" as="geometry"/>
                </mxCell>
                <mxCell id="95" value="&lt;font color=&quot;#ffffff&quot;&gt;id&lt;/font&gt;" style="edgeStyle=none;rounded=0;html=1;exitX=0.25;exitY=0;exitDx=0;exitDy=0;labelBackgroundColor=none;fontSize=8;fontColor=#cc0000;endArrow=oval;endFill=1;" edge="1" parent="1">
                    <mxGeometry x="1" y="10" relative="1" as="geometry">
                        <mxPoint x="90" y="680" as="targetPoint"/>
                        <mxPoint x="90" y="710" as="sourcePoint"/>
                        <mxPoint x="10" y="-10" as="offset"/>
                    </mxGeometry>
                </mxCell>
                <mxCell id="96" value="&lt;font color=&quot;#ffffff&quot;&gt;title&lt;/font&gt;" style="edgeStyle=none;rounded=0;html=1;exitX=0.25;exitY=0;exitDx=0;exitDy=0;labelBackgroundColor=none;fontSize=8;fontColor=#cc0000;endArrow=oval;endFill=0;" edge="1" parent="1">
                    <mxGeometry x="1" y="10" relative="1" as="geometry">
                        <mxPoint x="302" y="690" as="targetPoint"/>
                        <mxPoint x="302" y="710" as="sourcePoint"/>
                        <mxPoint x="10" y="-10" as="offset"/>
                    </mxGeometry>
                </mxCell>
                <mxCell id="98" value="&lt;font color=&quot;#ffffff&quot;&gt;body&lt;/font&gt;" style="edgeStyle=none;rounded=0;html=1;exitX=0.25;exitY=0;exitDx=0;exitDy=0;labelBackgroundColor=none;fontSize=8;fontColor=#cc0000;endArrow=oval;endFill=0;" edge="1" parent="1">
                    <mxGeometry x="1" y="10" relative="1" as="geometry">
                        <mxPoint x="322" y="680" as="targetPoint"/>
                        <mxPoint x="321.8" y="710" as="sourcePoint"/>
                        <mxPoint x="10" y="-10" as="offset"/>
                    </mxGeometry>
                </mxCell>
                <mxCell id="99" value="&lt;font color=&quot;#ffffff&quot;&gt;phone&lt;/font&gt;" style="edgeStyle=none;rounded=0;html=1;exitX=0.25;exitY=0;exitDx=0;exitDy=0;labelBackgroundColor=none;fontSize=8;fontColor=#cc0000;endArrow=oval;endFill=0;" edge="1" parent="1">
                    <mxGeometry x="1" y="10" relative="1" as="geometry">
                        <mxPoint x="342" y="690" as="targetPoint"/>
                        <mxPoint x="341.59999999999997" y="710" as="sourcePoint"/>
                        <mxPoint x="10" y="-10" as="offset"/>
                    </mxGeometry>
                </mxCell>
                <mxCell id="100" value="&lt;font color=&quot;#ffffff&quot;&gt;email&lt;/font&gt;" style="edgeStyle=none;rounded=0;html=1;exitX=0.25;exitY=0;exitDx=0;exitDy=0;labelBackgroundColor=none;fontSize=8;fontColor=#cc0000;endArrow=oval;endFill=0;" edge="1" parent="1">
                    <mxGeometry x="1" y="10" relative="1" as="geometry">
                        <mxPoint x="362" y="680" as="targetPoint"/>
                        <mxPoint x="361.5999999999999" y="710" as="sourcePoint"/>
                        <mxPoint x="10" y="-10" as="offset"/>
                    </mxGeometry>
                </mxCell>
                <mxCell id="101" value="&lt;font color=&quot;#ffffff&quot;&gt;created_time&lt;/font&gt;" style="edgeStyle=none;rounded=0;html=1;exitX=0.973;exitY=0.019;exitDx=0;exitDy=0;labelBackgroundColor=none;fontSize=8;fontColor=#cc0000;endArrow=oval;endFill=0;exitPerimeter=0;" edge="1" parent="1" source="93">
                    <mxGeometry x="1" y="-14" relative="1" as="geometry">
                        <mxPoint x="390" y="690" as="targetPoint"/>
                        <mxPoint x="371.5999999999999" y="720" as="sourcePoint"/>
                        <mxPoint x="-2" y="-17" as="offset"/>
                    </mxGeometry>
                </mxCell>
            </root>
        </mxGraphModel>
    </diagram>
</mxfile>